Coordinates
version=1
nRows=22
nColumns=24
inDegrees=yes

Units are S.I. units (second, meters, Newtons, ...)
Angles are in degrees.

endheader
time	pelvis_tilt	pelvis_list	pelvis_rotation	pelvis_tx	pelvis_ty	pelvis_tz	hip_flexion_r	hip_adduction_r	hip_rotation_r	knee_angle_r	ankle_angle_r	subtalar_angle_r	mtp_angle_r	hip_flexion_l	hip_adduction_l	hip_rotation_l	knee_angle_l	ankle_angle_l	subtalar_angle_l	mtp_angle_l	lumbar_extension	lumbar_bending	lumbar_rotation
      5.16000000	     -8.12172313	     -7.88370979	      3.36547246	     -0.74359721	     -0.01814184	      2.06263356	      4.11760163	     12.61591858	     -8.22613528	    -10.00585064	      6.73794746	     -4.53024343	      5.11221465	     36.10606695	     -5.79314329	      1.31590077	    -48.06753927	     -2.86992475	     -4.34963327	     35.77341876	      4.69130576	      6.38900464	     -2.76010209
      5.17000000	     -8.29313948	     -7.57770420	      3.32561782	     -0.73159155	     -0.01902313	      2.06271544	      3.14603605	     12.38818514	     -8.36184375	     -9.41705797	      7.13363979	     -4.23075621	      5.09294818	     36.87419945	     -5.40494095	      0.84134599	    -45.24142428	     -2.65854937	     -3.39197613	     35.47713764	      4.71082745	      6.03494604	     -2.42999100
      5.18000000	     -8.48157873	     -7.31705922	      3.32269336	     -0.71959785	     -0.02011178	      2.06271452	      2.23499846	     12.19992497	     -8.63748749	     -8.88572607	      7.54585647	     -3.88458662	      5.08224319	     37.56735574	     -5.08468159	      0.31031481	    -42.22272221	     -2.71810764	     -2.28470955	     35.29715344	      4.74352832	      5.72390763	     -2.14586307
      5.19000000	     -8.63373563	     -7.07166133	      3.32720695	     -0.70757400	     -0.02128707	      2.06260597	      1.33129204	     12.01515033	     -9.04569424	     -8.44465206	      7.95832078	     -3.43486315	      5.06779542	     38.07066565	     -4.79652080	     -0.27026026	    -38.97765964	     -2.99913876	     -1.13105895	     35.21604853	      4.73178545	      5.43527332	     -1.87291053
      5.20000000	     -8.74630742	     -6.84251863	      3.38104695	     -0.69544250	     -0.02255787	      2.06233607	      0.39859995	     11.83678803	     -9.50840779	     -8.04128514	      8.36502192	     -2.92221521	      5.03680366	     38.38792986	     -4.49662995	     -0.83024623	    -35.55612349	     -3.51627135	     -0.03049665	     35.23043713	      4.68836862	      5.16428689	     -1.65385472
      5.21000000	     -8.85391083	     -6.63888654	      3.41964447	     -0.68325519	     -0.02391877	      2.06199174	     -0.48626546	     11.66850147	     -9.96807886	     -7.74683408	      8.72998830	     -2.39094584	      5.01080497	     38.56158805	     -4.22938229	     -1.42699326	    -32.02121570	     -4.13002455	      0.97493554	     35.20091057	      4.63866128	      4.92816858	     -1.48938419
      5.22000000	     -8.90646620	     -6.43057432	      3.49194189	     -0.67091568	     -0.02528723	      2.06147155	     -1.38643823	     11.46621320	    -10.44659409	     -7.55669612	      9.08221993	     -1.76724897	      4.98955074	     38.53424260	     -3.90590719	     -1.90345764	    -28.42667248	     -4.69780681	      1.78250001	     35.01518660	      4.54177832	      4.69648745	     -1.35309251
      5.23000000	     -8.89564789	     -6.20428763	      3.59765504	     -0.65843519	     -0.02663658	      2.06077425	     -2.29268596	     11.20710606	    -10.94753356	     -7.50864923	      9.45206218	     -1.01520816	      4.97648611	     38.32155051	     -3.51771158	     -2.21937788	    -24.86531195	     -5.06408895	      2.40879815	     34.48689145	      4.38981549	      4.45430835	     -1.25874586
      5.24000000	     -8.86139978	     -5.95341416	      3.70520225	     -0.64584769	     -0.02793317	      2.05989906	     -3.13805340	     10.87703193	    -11.41119786	     -7.64432773	      9.80334666	     -0.21541896	      4.83109381	     38.00498753	     -3.07152958	     -2.38615769	    -21.49086897	     -4.98638893	      2.90215700	     32.08898408	      4.21621908	      4.20560108	     -1.23867551
      5.25000000	     -8.88862635	     -5.65107223	      3.66401518	     -0.63304538	     -0.02919313	      2.05901764	     -3.82206856	     10.41848228	    -11.77829286	     -8.01987099	     10.16527871	      0.79543181	      4.92610806	     37.62066695	     -2.66183343	     -2.60130275	    -18.16806611	     -4.99154845	      3.06522713	     31.24497801	      4.11924407	      3.93115054	     -1.05714876
      5.26000000	     -8.79788036	     -5.31112534	      3.75874941	     -0.62003205	     -0.03032013	      2.05786729	     -4.58968869	      9.90168350	    -12.13761314	     -8.48630247	     10.40956905	      1.69363013	      4.96048023	     37.10298814	     -2.12502991	     -2.49097842	    -15.28331728	     -4.27595184	      3.39355916	     27.09839294	      3.92465330	      3.61214117	     -1.10227210
      5.27000000	     -8.83368062	     -4.98655464	      3.62904410	     -0.60681110	     -0.03144642	      2.05680245	     -5.10683580	      9.31470579	    -12.36913505	     -9.21850220	     10.62644373	      2.82458904	      5.09068994	     36.63808552	     -1.74885860	     -2.61954843	    -12.54828854	     -4.14232192	      3.35100243	     26.29932792	      3.88521852	      3.34040961	     -0.92520949
      5.28000000	     -8.76762509	     -4.64254203	      3.58966347	     -0.59328415	     -0.03246027	      2.05562105	     -5.70581283	      8.70239394	    -12.57966470	    -10.01069068	     10.64265850	      3.79862385	      5.43004539	     36.13587849	     -1.32380238	     -2.66433713	    -10.52150954	     -3.23386157	      3.77780110	     22.21045404	      3.77928538	      3.02828017	     -0.93517149
      5.29000000	     -8.81389037	     -4.39674989	      3.35127644	     -0.57953152	     -0.03353939	      2.05456338	     -6.07888880	      8.12986719	    -12.63461197	    -11.01697484	     10.57484003	      4.86872426	      5.61012647	     35.80334283	     -1.12593652	     -3.02540441	     -8.96956949	     -2.89177748	      4.03871660	     21.80892159	      3.82508184	      2.83910301	     -0.76679520
      5.30000000	     -8.70939190	     -4.10669517	      3.19249124	     -0.56539273	     -0.03447284	      2.05347766	     -6.59185187	      7.50985416	    -12.75392297	    -12.07863198	     10.31179871	      5.87655507	      6.10261269	     35.40287117	     -0.87665802	     -3.44608252	     -8.17194232	     -2.31262445	      4.49941867	     20.89303351	      3.76224491	      2.57559258	     -0.77286916
      5.31000000	     -8.85662642	     -3.94045484	      2.80870084	     -0.55091267	     -0.03566583	      2.05255602	     -6.72381362	      6.97321555	    -12.56566334	    -13.34236301	      9.90247596	      6.69423923	      6.33574867	     35.38517838	     -0.85703649	     -3.85384174	     -8.13148346	     -1.83731156	      4.59574434	     20.79332334	      4.02280906	      2.45217845	     -0.51116976
      5.32000000	     -8.81493517	     -3.69886040	      2.51657833	     -0.53598206	     -0.03672236	      2.05158767	     -7.06292976	      6.34726051	    -12.58786339	    -14.56113089	      8.91416688	      7.47958446	      9.41001797	     35.23270777	     -0.75399248	     -4.22672515	     -8.80262599	     -1.24157437	      4.64735335	     19.84548724	      4.14042745	      2.22521016	     -0.43229737
      5.33000000	     -8.93350288	     -3.50596526	      2.17299068	     -0.52077621	     -0.03801173	      2.05060993	     -7.09155111	      5.73821798	    -12.49001604	    -16.08820659	      8.21738413	      8.29731284	      9.63891463	     35.29025750	     -0.72129954	     -4.51667722	     -9.92840469	     -1.26436165	      4.11326481	     19.89082546	      4.46873989	      2.04519675	     -0.27404290
      5.34000000	     -9.01519026	     -3.20700959	      1.94547869	     -0.50527322	     -0.03925546	      2.04938970	     -7.09919610	      4.96808343	    -12.72056333	    -17.64926187	      6.80945775	      9.08903382	     13.47693669	     35.25015225	     -0.50961324	     -4.63152872	    -11.24961296	     -1.84968406	      3.00767666	     18.90052963	      4.79555595	      1.74342711	     -0.30117100
      5.35000000	     -9.19767262	     -2.82812112	      1.86177366	     -0.48966501	     -0.04053920	      2.04785492	     -6.86026282	      4.05494698	    -13.17525345	    -19.51042568	      5.62711077	     10.18083119	     14.40298570	     35.29105944	     -0.12321521	     -4.66154479	    -12.58816625	     -3.21129248	      1.39621231	     17.70349357	      5.24134924	      1.34636123	     -0.46261741
      5.36000000	     -9.35736921	     -2.21629708	      1.77127410	     -0.47408510	     -0.04142785	      2.04644314	     -6.53369533	      2.85239303	    -13.76605286	    -21.37249230	      3.29269484	     10.85393396	     20.09270279	     35.29382054	      0.43777075	     -4.92795892	    -14.02479569	     -4.16349632	      0.27172027	     12.53847250	      5.63752354	      0.67932394	     -0.50453620
      5.37000000	     -9.67051484	     -1.56578759	      1.86109080	     -0.45866776	     -0.04224211	      2.04481676	     -5.87736884	      1.55051993	    -14.61643053	    -23.44691765	      0.60814434	     11.53914826	     24.76672157	     35.56206652	      1.11879245	     -5.18272181	    -15.42535354	     -5.71249376	     -0.89125202	     10.16930720	      6.16895486	     -0.06190477	     -0.72097454
